<svg width="187" height="21" viewBox="0 0 187 21" fill="none" xmlns="http://www.w3.org/2000/svg">
<line y1="9.50366" x2="50" y2="9.50366" stroke="#8B8371"/>
<path d="M65.608 14.7716L68.984 11.3316C69.8693 10.4143 70.5413 9.5236 71 8.6596C71.4693 7.78493 71.704 6.8836 71.704 5.9556C71.704 5.01693 71.5013 4.33427 71.096 3.9076C70.7013 3.47027 70.1627 3.2516 69.48 3.2516C68.9467 3.2516 68.4827 3.3956 68.088 3.6836C67.6933 3.9716 67.496 4.35027 67.496 4.8196C67.496 5.38493 67.7787 5.80627 68.344 6.0836C68.344 6.4676 68.2267 6.76093 67.992 6.9636C67.7573 7.16627 67.48 7.2676 67.16 7.2676C66.8187 7.2676 66.5253 7.14493 66.28 6.8996C66.0347 6.6436 65.912 6.29693 65.912 5.8596C65.912 5.2836 66.088 4.7716 66.44 4.3236C66.792 3.86493 67.2613 3.51293 67.848 3.2676C68.4347 3.0116 69.064 2.8836 69.736 2.8836C71.0373 2.8836 72.0027 3.19293 72.632 3.8116C73.2613 4.4196 73.576 5.22493 73.576 6.2276C73.576 6.8356 73.448 7.3956 73.192 7.9076C72.9467 8.40893 72.648 8.84627 72.296 9.2196C71.9547 9.59293 71.4853 10.0409 70.888 10.5636L70.44 10.9476L66.616 14.3236H72.584L73.24 11.9556H73.656V16.0036H65.608V14.7716ZM80.0445 16.3236C78.6685 16.3236 77.5965 16.0356 76.8285 15.4596C76.0605 14.8836 75.6765 14.0623 75.6765 12.9956C75.6765 12.0356 75.9485 11.2623 76.4925 10.6756C77.0365 10.0889 77.7565 9.56627 78.6525 9.1076L77.9165 8.6276C77.3618 8.2436 76.9298 7.8276 76.6205 7.3796C76.3218 6.92093 76.1725 6.44093 76.1725 5.9396C76.1725 5.32093 76.3485 4.78227 76.7005 4.3236C77.0632 3.86493 77.5432 3.51293 78.1405 3.2676C78.7378 3.0116 79.3832 2.8836 80.0765 2.8836C80.6738 2.8836 81.2445 2.98493 81.7885 3.1876C82.3432 3.39027 82.7912 3.69427 83.1325 4.0996C83.4845 4.50493 83.6605 4.9956 83.6605 5.5716C83.6605 6.0836 83.5538 6.5316 83.3405 6.9156C83.1272 7.28893 82.8605 7.60893 82.5405 7.8756C82.2205 8.1316 81.8205 8.39827 81.3405 8.6756L81.7565 8.9316C82.5778 9.45427 83.2178 9.99293 83.6765 10.5476C84.1458 11.0916 84.3805 11.7689 84.3805 12.5796C84.3805 13.3796 84.1725 14.0623 83.7565 14.6276C83.3405 15.1929 82.8018 15.6196 82.1405 15.9076C81.4792 16.1849 80.7805 16.3236 80.0445 16.3236ZM80.8925 8.4036C81.4045 8.03027 81.7512 7.60893 81.9325 7.1396C82.1138 6.6596 82.2045 6.15293 82.2045 5.6196C82.2045 4.9156 81.9912 4.34493 81.5645 3.9076C81.1378 3.47027 80.5778 3.2516 79.8845 3.2516C79.4898 3.2516 79.1165 3.3316 78.7645 3.4916C78.4125 3.64093 78.1298 3.85427 77.9165 4.1316C77.7032 4.40893 77.5965 4.7236 77.5965 5.0756C77.5965 5.5236 77.7298 5.9236 77.9965 6.2756C78.2632 6.6276 78.6632 6.9796 79.1965 7.3316L80.8925 8.4036ZM79.9645 15.9556C80.5405 15.9556 81.0472 15.8436 81.4845 15.6196C81.9325 15.3956 82.2738 15.0969 82.5085 14.7236C82.7432 14.3503 82.8605 13.9503 82.8605 13.5236C82.8605 12.9689 82.6952 12.4516 82.3645 11.9716C82.0445 11.4916 81.5432 11.0116 80.8605 10.5316L79.1165 9.4116C78.5192 9.84893 78.0658 10.3929 77.7565 11.0436C77.4578 11.6943 77.3085 12.3769 77.3085 13.0916C77.3085 13.9129 77.5218 14.5956 77.9485 15.1396C78.3858 15.6836 79.0578 15.9556 79.9645 15.9556ZM89.4476 16.0036V15.6836L90.6636 15.2036V8.1796L89.5436 8.0356V7.7156H92.6476L95.1756 13.6996L97.6876 7.7156H100.632V8.0356L99.5116 8.1956V15.5236L100.632 15.6836V16.0036H96.9516V15.6836L97.9116 15.5236V8.2436L94.5996 16.0036H94.4076L91.0636 8.2436V15.2036L92.2796 15.6836V16.0036H89.4476ZM101.495 16.0036V15.6836L102.711 15.2036V8.1796L101.59 8.0356V7.7156H104.695L107.223 13.6996L109.735 7.7156H112.679V8.0356L111.559 8.1956V15.5236L112.679 15.6836V16.0036H108.999V15.6836L109.959 15.5236V8.2436L106.647 16.0036H106.455L103.111 8.2436V15.2036L104.327 15.6836V16.0036H101.495ZM125.466 18.6436H125.017L123.61 16.0036H118.458L117.066 18.6436H116.617L116.857 15.6036H117.37C117.604 15.6036 117.834 15.5023 118.058 15.2996C118.282 15.0969 118.479 14.8036 118.65 14.4196C118.799 14.0676 118.916 13.6303 119.002 13.1076C119.098 12.5849 119.183 11.7636 119.258 10.6436L119.386 8.7236L117.93 8.0356V7.7156H125.21V8.0356L124.09 8.1956V15.6036H125.226L125.466 18.6436ZM122.49 8.1156H119.834L119.658 10.6436C119.583 11.7743 119.498 12.6116 119.402 13.1556C119.306 13.6889 119.188 14.1369 119.049 14.4996C118.954 14.7343 118.847 14.9369 118.73 15.1076C118.623 15.2676 118.527 15.3849 118.442 15.4596C118.367 15.5343 118.319 15.5823 118.298 15.6036H122.49V8.1156ZM126.01 16.0036V15.6836L127.13 15.5236V8.1956L126.01 8.0356V7.7156H129.69V8.0356L128.73 8.1956V14.4196L132.778 8.5156V8.1956L131.818 8.0356V7.7156H135.498V8.0356L134.378 8.1956V15.5236L135.498 15.6836V16.0036H131.818V15.6836L132.778 15.5236V9.1876L128.73 15.1076V15.5236L129.69 15.6836V16.0036H126.01ZM139.01 16.1636C138.327 16.1636 137.767 15.9876 137.33 15.6356C136.892 15.2729 136.674 14.7396 136.674 14.0356C136.674 13.0329 137.095 12.3236 137.938 11.9076C138.78 11.4809 139.756 11.2676 140.866 11.2676H141.938V10.0356C141.938 9.48093 141.874 9.05427 141.746 8.7556C141.628 8.44627 141.442 8.23293 141.186 8.1156C140.93 7.9876 140.583 7.9236 140.146 7.9236C139.644 7.9236 139.271 8.02493 139.026 8.2276C138.78 8.4196 138.658 8.68093 138.658 9.0116C138.658 9.32093 138.807 9.5236 139.106 9.6196C139.106 9.88627 139.004 10.1209 138.802 10.3236C138.599 10.5263 138.359 10.6276 138.082 10.6276C137.783 10.6276 137.543 10.5476 137.362 10.3876C137.18 10.2169 137.09 9.96093 137.09 9.6196C137.09 9.00093 137.399 8.50493 138.018 8.1316C138.636 7.75827 139.41 7.5716 140.338 7.5716C142.471 7.5716 143.538 8.4996 143.538 10.3556V14.9316C143.538 15.1663 143.586 15.3476 143.682 15.4756C143.788 15.5929 143.938 15.6516 144.13 15.6516C144.311 15.6516 144.455 15.5929 144.562 15.4756C144.668 15.3476 144.722 15.1769 144.722 14.9636H145.058C145.058 15.3369 144.935 15.6303 144.69 15.8436C144.455 16.0569 144.124 16.1636 143.698 16.1636C143.207 16.1636 142.791 16.0249 142.45 15.7476C142.119 15.4596 141.948 15.0169 141.938 14.4196C141.682 14.9636 141.287 15.3903 140.754 15.6996C140.231 16.0089 139.65 16.1636 139.01 16.1636ZM139.89 15.4596C140.178 15.4596 140.471 15.3743 140.77 15.2036C141.079 15.0329 141.34 14.7876 141.554 14.4676C141.767 14.1369 141.895 13.7423 141.938 13.2836V11.6196H140.866C139.991 11.6196 139.335 11.8169 138.898 12.2116C138.471 12.5956 138.258 13.1396 138.258 13.8436C138.258 14.4303 138.396 14.8463 138.674 15.0916C138.951 15.3369 139.356 15.4596 139.89 15.4596ZM145.448 16.0036V15.6836L146.664 15.2036V8.1796L145.544 8.0356V7.7156H148.648L151.176 13.6996L153.688 7.7156H156.632V8.0356L155.512 8.1956V15.5236L156.632 15.6836V16.0036H152.952V15.6836L153.912 15.5236V8.2436L150.6 16.0036H150.408L147.064 8.2436V15.2036L148.28 15.6836V16.0036H145.448ZM161.975 16.1636C161.185 16.1636 160.471 15.9876 159.831 15.6356C159.191 15.2729 158.684 14.7663 158.311 14.1156C157.937 13.4649 157.751 12.7129 157.751 11.8596C157.751 11.0063 157.932 10.2596 158.295 9.6196C158.668 8.96893 159.164 8.4676 159.783 8.1156C160.412 7.75293 161.111 7.5716 161.879 7.5716C162.551 7.5716 163.153 7.72093 163.687 8.0196C164.22 8.31827 164.636 8.73427 164.935 9.2676C165.233 9.79027 165.388 10.3929 165.399 11.0756H159.511V12.6596C159.511 13.5983 159.719 14.3609 160.135 14.9476C160.561 15.5236 161.175 15.8116 161.975 15.8116C162.711 15.8116 163.361 15.6036 163.927 15.1876C164.492 14.7716 164.839 14.2329 164.967 13.5716H165.335C165.185 14.3609 164.807 14.9903 164.199 15.4596C163.591 15.9289 162.849 16.1636 161.975 16.1636ZM163.639 10.6756C163.639 9.7476 163.495 9.0596 163.207 8.6116C162.919 8.15293 162.471 7.9236 161.863 7.9236C161.148 7.9236 160.593 8.17427 160.199 8.6756C159.804 9.17693 159.58 9.8436 159.527 10.6756H163.639ZM168.303 16.0036V15.6836L169.583 15.5236V8.1156H168.207L166.815 10.7556H166.367L166.607 7.7156H174.159L174.399 10.7556H173.951L172.543 8.1156H171.183V15.5236L172.463 15.6836V16.0036H168.303ZM175.07 20.2116L176.19 20.0516V8.2116L175.07 8.0516V7.7316H177.79V9.4116C178.057 8.8356 178.414 8.3876 178.862 8.0676C179.321 7.73693 179.865 7.5716 180.494 7.5716C181.252 7.5716 181.918 7.75293 182.494 8.1156C183.07 8.4676 183.518 8.96893 183.838 9.6196C184.158 10.2596 184.318 11.0116 184.318 11.8756C184.318 12.7396 184.158 13.4969 183.838 14.1476C183.518 14.7876 183.07 15.2836 182.494 15.6356C181.918 15.9876 181.252 16.1636 180.494 16.1636C179.865 16.1636 179.321 16.0036 178.862 15.6836C178.414 15.3529 178.057 14.9049 177.79 14.3396V20.0516L179.294 20.2116V20.5316H175.07V20.2116ZM180.334 15.7636C181.817 15.7636 182.558 14.7343 182.558 12.6756V11.0756C182.558 9.00627 181.817 7.9716 180.334 7.9716C179.865 7.9716 179.438 8.11027 179.054 8.3876C178.67 8.65427 178.366 9.01693 178.142 9.4756C177.918 9.93427 177.801 10.4303 177.79 10.9636V12.6756C177.79 13.2196 177.897 13.7316 178.11 14.2116C178.334 14.6809 178.638 15.0596 179.022 15.3476C179.417 15.6249 179.854 15.7636 180.334 15.7636Z" fill="#1B1A17"/>
</svg>
